# xmcd CD database file
#
# Track frame offsets:
#	187
#	9182
#	30235
#	34187
#	61630
#	82755
#	87402
#	109015
#	131522
#	135960
#	153785
#	175702
#	180750
#	206495
#
# Disc length: 2808 seconds
#
# Revision: 3
# Processed by: cddbd v1.5PL3 Copyright (c) Steve Scherf et al.
# Submitted via: CDex 1.51
#
DISCID=8c0af60e
DTITLE=GIRLS BE - フレンチ大作戦
DYEAR=1997
DGENRE=JPop
TTITLE0=フレンチ大作戦のオープニング・テーマ
TTITLE1=絶対、ダメッ！
TTITLE2=あいさつ I
TTITLE3=Who Are You?
TTITLE4=素敵なDr.
TTITLE5=あいさつ II
TTITLE6=セシルの約束
TTITLE7=真夜中においでよ(Album Version)
TTITLE8=尋ねあい I
TTITLE9=巴里のフン
TTITLE10=子猫とおじさん
TTITLE11=尋ねあい II
TTITLE12=あかるい
TTITLE13=フレンチ大作戦のエンディング・テーマ
EXTD=YEAR: 1997
EXTT0=
EXTT1=
EXTT2=
EXTT3=
EXTT4=
EXTT5=
EXTT6=
EXTT7=
EXTT8=
EXTT9=
EXTT10=
EXTT11=
EXTT12=
EXTT13=
PLAYORDER=
